inDegrees=no
num_controls=7
num_derivatives=13
num_iterations=114
num_multipliers=7
num_parameters=0
num_slacks=7
num_states=26
objective=5.650137
objective_accelerations=0.734270
objective_balance=0.089430
objective_effort=0.691486
objective_height=4.081158
objective_ligament=0.053793
solver_duration=1137.566387
status=Solve_Succeeded
success=true
DataType=double
version=3
OpenSimVersion=4.4-2022-07-23-0e9fedc
endheader
time	/jointset/ground_pelvis/pelvis_tilt/value	/jointset/ground_pelvis/pelvis_tx/value	/jointset/ground_pelvis/pelvis_ty/value	/jointset/hip_l/hip_flexion_l/value	/jointset/hip_l/hip_adduction_l/value	/jointset/hip_l/hip_rotation_l/value	/jointset/back/lumbar_extension/value	/jointset/patellofemoral_l/patellar_flexion_l/value	/jointset/knee_l/knee_flexion_l/value	/jointset/knee_l/knee_adduction_l/value	/jointset/knee_l/knee_rotation_l/value	/jointset/ankle_l/ankle_angle_l/value	/jointset/subtalar_l/subtalar_angle_l/value	/jointset/ground_pelvis/pelvis_tilt/speed	/jointset/ground_pelvis/pelvis_tx/speed	/jointset/ground_pelvis/pelvis_ty/speed	/jointset/hip_l/hip_flexion_l/speed	/jointset/hip_l/hip_adduction_l/speed	/jointset/hip_l/hip_rotation_l/speed	/jointset/back/lumbar_extension/speed	/jointset/patellofemoral_l/patellar_flexion_l/speed	/jointset/knee_l/knee_flexion_l/speed	/jointset/knee_l/knee_adduction_l/speed	/jointset/knee_l/knee_rotation_l/speed	/jointset/ankle_l/ankle_angle_l/speed	/jointset/subtalar_l/subtalar_angle_l/speed	/forceset/tau_hip_flexion_l	/forceset/tau_hip_adduction_l	/forceset/tau_hip_rotation_l	/forceset/tau_knee_flexion_l	/forceset/tau_ankle_angle_l	/forceset/tau_subtalar_angle_l	/forceset/tau_lumbar_extension	lambda_cid13_p0	lambda_cid13_p1	lambda_cid13_p2	lambda_cid13_p3	lambda_cid13_p4	lambda_cid13_p5	lambda_cid14_p0	/jointset/ground_pelvis/pelvis_tilt/accel	/jointset/ground_pelvis/pelvis_tx/accel	/jointset/ground_pelvis/pelvis_ty/accel	/jointset/hip_l/hip_flexion_l/accel	/jointset/hip_l/hip_adduction_l/accel	/jointset/hip_l/hip_rotation_l/accel	/jointset/back/lumbar_extension/accel	/jointset/patellofemoral_l/patellar_flexion_l/accel	/jointset/knee_l/knee_flexion_l/accel	/jointset/knee_l/knee_adduction_l/accel	/jointset/knee_l/knee_rotation_l/accel	/jointset/ankle_l/ankle_angle_l/accel	/jointset/subtalar_l/subtalar_angle_l/accel	gamma_cid13_p0	gamma_cid13_p1	gamma_cid13_p2	gamma_cid13_p3	gamma_cid13_p4	gamma_cid13_p5	gamma_cid14_p0
1.5	-0.06760865354501544	-0.05133270477283217	0.731582116706087	1.150174012211637	-0.3104912485133975	-0.06389427470861032	-0.874413064564686	1.247132014744762	1.247132014744799	0.03518567093645031	-0.1745103959352462	0.2622522301654518	0.0830207963822818	0.4271183950370519	0.1860544831193836	0.9224108147757102	-3.106838878333986	0.0445245162323799	-0.6373433583908523	0.7105254367877416	-3.044890454403071	-3.044890454402956	-0.4813976217127863	5.526273892415014e-05	-0.5565549972882601	-0.1859040120426075	-0.297744101995088	0.02434594722694759	-0.02014000975171367	-0.3055273553995488	0.07390416235597286	0.04362969412449708	0.3649495235458073	-18.29219387594693	-13.56317181151246	-0.7847625231693516	-19.43430023615756	-689.3365542077677	-62.85250558982164	-0.3475791114247542	1.110082992502539	1.36858198254539	-0.6722058512527381	-2.141587456699201	0.3657482258298745	-0.886626678477183	3.451991129374478	-2.966755067352812	-2.96675506735282	-0.3379397437907001	0.08628226556950892	-2.111775578077684	-0.3132663654492917	5.357103666463086e-07	3.601463447608154e-06	-1.336022786481081e-06	4.911272966336261e-07	6.440827749800871e-07	2.498117348356557e-07	6.730928996323143e-07
1.51	-0.0632825569136239	-0.04940353733049755	0.7407702428892305	1.119001219740325	-0.31002993565002	-0.07031326028998283	-0.867135928647931	1.216538330100319	1.216538330100335	0.03035278402464351	-0.1745098855278804	0.2565821604936281	0.08114385875093931	0.4379819880072603	0.1997928256849247	0.9149690548571172	-3.127352086088215	0.04773674666235145	-0.6464529459840702	0.7448955610648504	-3.073438972181998	-3.073438972181939	-0.4851571447978705	4.893256124449018e-05	-0.5772828930072506	-0.1893870314023835	-0.2873246435592208	0.02448640153172377	-0.01936728465814569	-0.2970764179331255	0.07476247111282174	0.043886003936328	0.3545970596777581	-17.33500311055682	-14.04353659537075	-0.4780722203569229	-19.84003265435861	-678.6390101654462	-62.96510318869755	-0.707459175651578	1.056718847020364	1.378628694393887	-0.8168151599901664	-1.950991386124064	0.2986897414606077	-0.9222043991818812	3.428595252147069	-2.737926740960254	-2.737926740968688	-0.3908293178253904	-0.04405091432934218	-2.026683576042312	-0.3518010589952936	6.061160829092506e-07	3.916566245670464e-06	-1.56712657910779e-06	4.813093280347368e-07	7.171283432725195e-07	3.744116175236884e-07	7.302974478127624e-07
1.52	-0.05885138007296835	-0.04733655280234123	0.7498766206536228	1.087634334401223	-0.3095365546243516	-0.07682315766718098	-0.8595152770533485	1.185671354956527	1.18567135495652	0.02548312773653156	-0.1745094304732367	0.2507101344631705	0.07923489465844961	0.4481344368870858	0.2136179002837237	0.9060611310254489	-3.145657451896027	0.0509381486874831	-0.6555257175547898	0.7792285723526973	-3.099548554272825	-3.099548554272822	-0.4887514969612504	4.419218786598603e-05	-0.596946269015542	-0.1923093042722959	-0.2769051851233122	0.02462685583656841	-0.01859455956470324	-0.2886254804666996	0.07562077986968739	0.04414231374825781	0.3442445958097385	-16.37555841146013	-14.53859765721699	-0.1527031830382437	-20.32370867984971	-667.91738009087	-63.17424006275562	-1.197490338743188	0.967854174426114	1.385928389196937	-0.9654386338678144	-1.700019067415489	0.363582544861961	-0.8792634739775135	3.444568531521994	-2.478967929732794	-2.478967929732763	-0.3049055594498903	0.08660022642964645	-1.898871635937996	-0.2011170674766954	6.723349260643084e-07	4.254454046580883e-06	-1.75299116633036e-06	4.744245351130986e-07	7.95366806710368e-07	5.399699563258146e-07	7.825449220354749e-07
1.53	-0.05432222362335078	-0.0451310080231483	0.7588866759229973	1.056095307934085	-0.3090113595979197	-0.08342383074823662	-0.851552000333786	1.154555625968566	1.154555625968574	0.02057806116724028	-0.1745093551074252	0.2446469541250334	0.07729938088622523	0.4575646747093033	0.2274910508971857	0.8957089964146685	-3.161754291734813	0.05410346909290632	-0.6645990006029223	0.8133845653358838	-3.123154745016187	-3.123154745016213	-0.4922444906817688	-2.132328316764638e-05	-0.6154910987615025	-0.194688005349634	-0.2660730869584532	0.02433445910890339	-0.01784802121569782	-0.2804301976298375	0.07646232367219441	0.04422183120828171	0.3333720232134266	-15.43593235427146	-14.9485202287794	0.1535097293418055	-20.60735297087763	-657.101681942995	-63.27900405741217	-1.811916125678768	0.9108453460147192	1.38810142629893	-1.106055047600355	-1.505413922727254	0.2932828606846101	-0.9189731955555206	3.394783748189055	-2.235240836749887	-2.235240836754493	-0.3680595157198563	-0.05228273772293005	-1.802242790507868	-0.2409681800311242	7.341052165422393e-07	4.616550913017419e-06	-1.890789097811034e-06	4.706562413485394e-07	8.79122721240221e-07	7.490466547491651e-07	8.295255051780936e-07
1.54	-0.04970271744352072	-0.04278671313204577	0.7677860190116806	1.024407133572443	-0.3084544561529572	-0.09011475915489008	-0.8432484298710954	1.123217075835162	1.123217075835158	0.01563875201316863	-0.1745097659569921	0.2384043346601177	0.07534313579279472	0.4662043829273352	0.2413679226656394	0.883918694887207	-3.175487030798292	0.0572798323904238	-0.673576782664025	0.8472873209779729	-3.144112783364031	-3.144112783364088	-0.4956000138969487	-5.305090832522896e-05	-0.6328340943707743	-0.196455568513722	-0.2552409887936116	0.02404206238116075	-0.01710148286713523	-0.2722349147930015	0.07730386747468752	0.04430134866820699	0.3224994506171113	-14.4902395550863	-15.37396360434991	0.4787124993400276	-20.97705780282971	-646.2077324143903	-63.48553717326505	-2.546037191736191	0.8097482535890838	1.386672620195182	-1.253072017204059	-1.227198912354133	0.3657911232809349	-0.8601632765714838	3.393921063302488	-1.949337450629543	-1.94933745062954	-0.2774114583822148	0.09335779560494141	-1.6585048086004	-0.07888948482670022	7.978358171434965e-07	5.060134440907163e-06	-1.98851797723621e-06	4.777731371983893e-07	9.734898723786226e-07	1.000113389528613e-06	8.808115443329115e-07
1.55	-0.04500070977485077	-0.04030377334115349	0.7765604063202668	0.9925932624506656	-0.3078659205225434	-0.0968955026961404	-0.8346077393672245	1.09168225582977	1.091682255829826	0.01066641952333802	-0.1745108841888313	0.2319943794589432	0.07337205665829648	0.474053838182786	0.2552041862009026	0.8707260462177684	-3.186865076772723	0.06043475250065043	-0.6825470537622521	0.8807638885619113	-3.162372812729684	-3.162372812729668	-0.4988545214046666	-0.000153821398712538	-0.6489386794334775	-0.1976471951978072	-0.2440198568329314	0.02356338656222244	-0.01638469414559723	-0.264542830959381	0.07837862117873778	0.04394016615108483	0.3111569544147489	-13.51202841624537	-15.58650925811779	0.7389094858089776	-21.15253576094949	-635.4294705070685	-63.34658900835772	-3.396487152339751	0.7511079932357958	1.3798274936975	-1.387041523405657	-1.0297200406436	0.2912415309709889	-0.9107054323519909	3.311490920876059	-1.692768593376211	-1.692768593365439	-0.346685824091058	-0.05961338276371514	-1.553405191017321	-0.1230396269450416	8.638250359303249e-07	5.597604774384294e-06	-2.040080340162663e-06	4.974316645604924e-07	1.080083013522525e-06	1.2995599488053e-06	9.370582175887415e-07
1.56	-0.04022449478727672	-0.03768292606020812	0.7851959310958402	0.9606782883490206	-0.3072456558757991	-0.1037649982295658	-0.8256348899245256	1.059979148947964	1.059979148948056	0.005662098872902263	-0.1745125739077556	0.2254299844399603	0.07139231318360911	0.4810458467067522	0.2689494206762547	0.856146188284661	-3.195707626773409	0.06362563565395847	-0.6913271810966147	0.913719108743331	-3.17777015864906	-3.177770158648972	-0.5019976459973358	-0.0001673483452230152	-0.6637220579326619	-0.1981884365517111	-0.2327987248722409	0.02308471074331179	-0.01566790542449035	-0.2568507471257802	0.07945337488279804	0.04357898363401001	0.2998144582123949	-12.52213307886202	-15.81779772923452	1.02116695917407	-21.42852788103358	-624.5005130274225	-63.31633237186595	-4.361591699117679	0.6382589072922927	1.368466808212827	-1.53051386993781	-0.7200997176051802	0.3729837318974724	-0.8221345237983632	3.289651582798686	-1.376800761374395	-1.376800761374403	-0.2551348753724602	0.1108065043806093	-1.394263495896837	0.05118758120963685	9.178366481543855e-07	6.147894607989503e-06	-2.025357650771949e-06	5.271339962413273e-07	1.17898806719678e-06	1.610913633340548e-06	9.868116405222467e-07
